<svg width="110" height="108" viewBox="0 0 110 108" fill="none" xmlns="http://www.w3.org/2000/svg">
    <ellipse cx="55" cy="54" rx="55" ry="54" fill="white" />
    <path d="M59.9028 61.1143C59.9028 59.6478 59.3853 58.5264 58.3501 57.75C57.3149 56.9564 55.4517 56.1283 52.7603 55.2656C50.0688 54.3857 47.9382 53.5231 46.3682 52.6777C42.0895 50.3659 39.9502 47.2518 39.9502 43.3354C39.9502 41.2996 40.5195 39.4881 41.6582 37.9009C42.8141 36.2964 44.4618 35.0456 46.6011 34.1484C48.7576 33.2513 51.173 32.8027 53.8472 32.8027C56.5386 32.8027 58.9367 33.2944 61.0415 34.2778C63.1463 35.244 64.7767 36.6156 65.9326 38.3926C67.1058 40.1696 67.6924 42.1882 67.6924 44.4482H59.9287C59.9287 42.723 59.3853 41.3859 58.2983 40.437C57.2114 39.4709 55.6846 38.9878 53.7178 38.9878C51.82 38.9878 50.3449 39.3932 49.2925 40.2041C48.2401 40.9977 47.7139 42.0501 47.7139 43.3613C47.7139 44.5863 48.3263 45.6128 49.5513 46.4409C50.7935 47.269 52.6136 48.0454 55.0117 48.77C59.4284 50.0985 62.646 51.7461 64.6646 53.7129C66.6831 55.6797 67.6924 58.1296 67.6924 61.0625C67.6924 64.3232 66.4588 66.8853 63.9917 68.7485C61.5246 70.5946 58.2035 71.5176 54.0283 71.5176C51.1299 71.5176 48.4902 70.9914 46.1094 69.939C43.7285 68.8693 41.9084 67.4115 40.6489 65.5654C39.4067 63.7194 38.7856 61.5801 38.7856 59.1475H46.5752C46.5752 63.3053 49.0596 65.3843 54.0283 65.3843C55.8743 65.3843 57.3149 65.0133 58.3501 64.2715C59.3853 63.5124 59.9028 62.46 59.9028 61.1143Z" fill="#107EFF" />
</svg>
