<svg width="1728" height="1117" viewBox="0 0 1728 1117" fill="none" xmlns="http://www.w3.org/2000/svg">
<g clip-path="url(#clip0_5_2)">
<rect width="1728" height="1117" fill="#10245A"/>
<path d="M1224.58 53C1186.58 45 1186.41 13.3333 1191.08 -1.5L1755.58 -69C1756.25 52.1667 1748.38 298.9 1711.58 316.5C1665.58 338.5 1612.08 230.5 1583.08 124C1554.08 17.5 1272.08 63 1224.58 53Z" fill="#6C758F" fill-opacity="0.18"/>
<path d="M743.298 367.108C980.098 279.108 1103.3 443.441 1135.3 536.608C1150.8 653.108 844.798 580.608 804.298 572.108C763.798 563.608 680.798 495.608 575.798 778.108C491.798 1004.11 446.131 979.275 433.798 938.608C406.798 892.441 355.798 776.108 367.798 680.108C382.798 560.108 447.298 477.108 743.298 367.108Z" fill="#6B7899" fill-opacity="0.04"/>
</g>
<defs>
<clipPath id="clip0_5_2">
<rect width="1728" height="1117" fill="white"/>
</clipPath>
</defs>
</svg>
