<svg width="345" height="387" viewBox="0 0 345 387" fill="none" xmlns="http://www.w3.org/2000/svg">
<g id="media-icons">
<g id="Person">
<path id="Vector" d="M283.387 204.961C283.387 305.454 233.37 384.731 171.775 386.919C91.4498 389.773 -13.5312 316.711 60.1623 204.961C116.949 118.848 110.133 23.0017 171.775 23.0017C233.417 23.0017 283.387 104.467 283.387 204.961Z" fill="#213364"/>
<path id="Vector_2" d="M218.589 258.385H59.447V384.458H218.589V258.385Z" fill="#B97A00"/>
<path id="Vector_3" d="M161.055 132.936C161.055 132.936 187.533 133.592 191.906 135.044C196.279 136.495 198.235 146.874 198.235 146.874L177.676 152.769L162.299 151.974L150.727 152.72L157.188 137.282L161.055 132.936Z" fill="#2F2E41"/>
<path id="Vector_4" d="M162.197 125.01C162.197 125.01 163.939 131.148 160.073 135.494C156.206 139.84 176.694 155.327 176.694 155.327L187.502 153.632C187.502 153.632 185.12 134.772 188.32 129.996C191.52 125.221 162.197 125.01 162.197 125.01Z" fill="#9F616A"/>
<path id="Vector_5" opacity="0.1" d="M162.197 125.01C162.197 125.01 163.939 131.148 160.073 135.494C156.206 139.84 176.694 155.327 176.694 155.327L187.502 153.632C187.502 153.632 185.12 134.772 188.32 129.996C191.52 125.221 162.197 125.01 162.197 125.01Z" fill="black"/>
<path id="Vector_6" d="M234.077 304.47L210.23 333.319L226.504 341.987L248.903 308.557L234.077 304.47Z" fill="#9F616A"/>
<path id="Vector_7" d="M217.35 333.806C217.35 333.806 208.568 324.498 208.959 326.573C209.35 328.649 202.711 346.252 208.888 347.955C215.065 349.658 268.04 354.174 268.769 348.717C269.498 343.26 252.965 339.441 252.965 339.441C252.965 339.441 243.144 330.83 240.966 331.706C238.788 332.581 217.35 333.806 217.35 333.806Z" fill="#2F2E41"/>
<path id="Vector_8" d="M228.727 332.022L247.774 361.625L262.156 354.028L242.948 329.792L228.727 332.022Z" fill="#9F616A"/>
<path id="Vector_9" d="M258.796 261.593L253.143 268.891C253.143 268.891 226.193 303.035 229.055 305.792C231.917 308.549 243.837 318.968 249.899 316.949C255.96 314.93 277.497 280.032 277.497 280.032L271.879 259.542L258.796 261.593Z" fill="#2F2E41"/>
<path id="Vector_10" d="M142.705 254.686C142.705 254.686 148.74 264.959 164.037 268.437C179.334 271.915 195.315 279.026 195.884 278.937C196.453 278.848 198.062 278.062 198.453 280.137C198.844 282.213 203.039 285.829 203.039 285.829C203.039 285.829 219.936 338.209 226.389 338.265C232.842 338.322 246.103 334.106 246.379 332.46C246.654 330.814 226.62 277.324 226.424 276.286L224.078 263.831C224.078 263.831 250.574 267.691 253.045 268.372C255.516 269.053 277.497 280.032 277.497 280.032C277.497 280.032 299.904 265.299 278.946 250.42C257.987 235.542 221.962 224.628 221.962 224.628L209.039 221.312L197.775 220.698L196.117 214.897L169.441 216.301L141.603 227.077L142.705 254.686Z" fill="#2F2E41"/>
<path id="Vector_11" d="M177.911 137.227C189.387 137.227 198.69 128.741 198.69 118.272C198.69 107.803 189.387 99.3166 177.911 99.3166C166.435 99.3166 157.132 107.803 157.132 118.272C157.132 128.741 166.435 137.227 177.911 137.227Z" fill="#9F616A"/>
<path id="Vector_12" d="M159.113 133.507L161.612 133.116C161.612 133.116 166.126 148.97 180.089 151.589C180.089 151.589 186.979 144.059 186.685 142.789C186.391 141.518 192.142 134.74 195.199 138.534C198.257 142.329 194.453 209.174 197.022 210.374C199.59 211.574 205.101 212.847 200.666 217.282C196.231 221.717 178.614 227.685 174.712 225.625C170.81 223.566 162.837 206.117 159.388 200.247C155.94 194.376 150.42 174.406 150.42 174.406C150.42 174.406 143.371 152.538 147.709 147.583C152.046 142.629 159.113 133.507 159.113 133.507Z" fill="#D0CDE1"/>
<path id="Vector_13" d="M178.999 215.8C178.535 220.456 177.74 225.08 176.619 229.643C175.6 233.355 174.413 235.596 173.059 235.501C169.604 235.265 168.034 239.888 167.224 245.217C166.359 250.871 166.359 257.321 165.884 259.601C165.256 262.613 161.235 264.911 153.201 264.236C148.417 263.74 143.721 262.689 139.228 261.11C128.381 257.512 128.702 228.337 130.517 206.688C131.626 193.419 133.295 182.97 133.295 182.97C133.295 182.97 130 174.005 128.946 167.86C128.736 166.739 128.631 165.604 128.632 164.466C128.793 159.099 139.535 144.594 146.026 135.559C152.524 126.523 161.389 133.152 161.389 133.152L158.304 141.646C158.304 141.646 163.085 148.376 163.12 154.782C163.155 161.187 174.567 165.81 178.664 168.911C181.24 170.859 181.177 196.87 178.999 215.8Z" fill="#2F2E41"/>
<path id="Vector_14" d="M188.022 136.187C188.022 136.187 188.771 136.995 192.199 136.601C196.311 136.128 201.965 137.426 203.279 141.007C205.687 147.575 212.478 174.292 212.478 174.292C212.478 174.292 215.305 204.836 216.576 211.582C217.847 218.328 217.216 224.304 218.469 227.847C219.722 231.39 206.097 221.239 201.075 222.56C196.053 223.882 192.826 206.757 193.457 200.782C194.088 194.806 194.622 188.311 192.879 182.173C191.137 176.035 194.226 159.79 194.11 156.069C193.995 152.347 183.037 142.967 188.022 136.187Z" fill="#2F2E41"/>
<path id="Vector_15" d="M202.725 231.117C202.725 231.117 224.725 242.066 226.831 257.651C228.937 273.235 197.404 242.561 197.404 242.561L202.725 231.117Z" fill="#9F616A"/>
<path id="Vector_16" d="M215.284 220.065C215.284 220.065 222.025 251.064 232.527 249.417C243.029 247.771 226.661 218.282 226.661 218.282L215.284 220.065Z" fill="#9F616A"/>
<path id="Vector_17" d="M251.25 355.203C251.25 355.203 245.872 360.855 244.539 359.995C243.206 359.136 240.139 370.836 242.904 373.074C245.668 375.312 256.316 378.985 256.432 382.707C256.547 386.428 285.105 385.691 286.128 381.79C287.15 377.89 282.546 368.996 279.31 367.366C276.075 365.736 264.112 350.736 264.112 350.736C264.112 350.736 254.743 351.984 251.25 355.203Z" fill="#2F2E41"/>
<path id="Vector_18" opacity="0.1" d="M199.22 250.075C194.118 246.79 179.872 245.975 167.224 245.217C161.675 244.892 156.433 244.574 152.406 244.058C148.525 243.568 145.035 240.333 141.936 235.513C137.238 228.21 133.441 217.258 130.517 206.688C131.626 193.419 133.295 182.97 133.295 182.97C133.295 182.97 130 174.005 128.946 167.86C129.689 166.917 130.646 166.131 131.752 165.555C145.168 160.302 157.976 211.999 159.602 220.111C159.63 220.244 159.651 220.372 159.672 220.48C160.461 224.657 168.983 228.229 176.619 229.643C181.324 230.515 185.7 230.572 187.717 229.439C193.015 226.472 209.306 238.347 210.542 238.684C211.777 239.028 206.549 254.806 199.22 250.075Z" fill="black"/>
<path id="Vector_19" d="M131.754 162.373C131.754 162.373 122.004 166.573 126.288 186.203C130.572 205.833 139.203 239.207 152.402 240.877C165.601 242.547 191.884 242.166 199.217 246.893C206.55 251.62 211.776 235.842 210.541 235.501C209.305 235.161 193.013 223.29 187.716 226.258C182.418 229.225 160.944 224.044 159.673 217.298C158.402 210.552 145.389 157.03 131.754 162.373Z" fill="#2F2E41"/>
<path id="Vector_20" d="M202.017 152.959L212.733 175.642C212.733 175.642 213.811 175.151 215.065 178.695C216.318 182.238 216.905 185.352 219.1 187.679C221.296 190.006 231.064 223.201 231.357 224.758C231.651 226.314 217.866 231.681 214.785 227.356C211.705 223.031 202.017 152.959 202.017 152.959Z" fill="#2F2E41"/>
<path id="Vector_21" d="M166.089 118.008C166.886 117.814 167.003 116.85 167.029 116.098C167.172 112.074 169.829 107.944 174.052 106.773C175.672 106.367 177.369 106.282 179.028 106.523C181.397 106.811 183.684 107.507 185.768 108.574C186.868 109.138 187.946 109.817 189.194 109.99C190.018 110.103 193.585 111.05 194.406 111.183C196.21 111.476 197.886 112.948 199.617 112.4C201.273 111.876 201.639 109.92 201.679 108.321C201.77 104.68 198.74 99.6392 196.07 96.93C194.045 94.8741 190.995 93.925 188.013 93.4315C184.53 92.921 181.001 92.7251 177.475 92.8467C172.704 92.9244 167.8 93.2604 163.497 95.1438C159.195 97.0272 155.581 100.776 155.374 105.125C155.331 106.031 155.434 106.941 155.35 107.845C155.147 110.049 153.863 112.04 153.261 114.183C152.831 115.756 152.767 117.393 153.072 118.99C153.378 120.586 154.048 122.107 155.037 123.453C156.634 125.596 159.144 127.535 159.051 130.126L162.514 126.853C163.031 126.493 163.397 125.982 163.551 125.405C163.705 124.829 163.637 124.221 163.359 123.684L162.134 119.324C161.819 118.545 161.782 117.696 162.028 116.897C163.341 113.935 164.762 118.331 166.089 118.008Z" fill="#2F2E41"/>
</g>
<g id="Github">
<path id="Vector_22" d="M78.5002 0C62.2098 0 49 13.3121 49 29.7342C49 42.8715 57.4527 54.0172 69.1741 57.9489C70.6484 58.2241 71.1897 57.3039 71.1897 56.5185C71.1897 55.8095 71.1623 53.4672 71.1496 50.9826C62.9426 52.7813 61.2108 47.4744 61.2108 47.4744C59.8689 44.0375 57.9354 43.1236 57.9354 43.1236C55.2588 41.2782 58.1371 41.3161 58.1371 41.3161C61.0995 41.5259 62.6593 44.3802 62.6593 44.3802C65.2904 48.9259 69.5605 47.6117 71.2439 46.852C71.5087 44.9302 72.2732 43.6185 73.1168 42.876C66.5644 42.1241 59.6764 39.5745 59.6764 28.1812C59.6764 24.9349 60.8288 22.2824 62.7159 20.2001C62.4096 19.4512 61.3999 16.427 63.0017 12.3313C63.0017 12.3313 65.479 11.5322 71.1164 15.3792C73.4696 14.7204 75.9932 14.39 78.5002 14.3787C81.0073 14.39 83.5329 14.7204 85.8904 15.3792C91.521 11.5322 93.9949 12.3313 93.9949 12.3313C95.6006 16.427 94.5904 19.4512 94.2841 20.2001C96.1756 22.2824 97.3202 24.9349 97.3202 28.1812C97.3202 39.6016 90.419 42.1162 83.8499 42.8523C84.9081 43.7751 85.8509 45.5846 85.8509 48.3587C85.8509 52.3372 85.8167 55.5392 85.8167 56.5185C85.8167 57.3098 86.3477 58.2369 87.843 57.945C99.558 54.0088 108 42.8671 108 29.7342C108 13.3121 94.7921 0 78.5002 0ZM60.0488 42.357C59.9838 42.5047 59.7533 42.549 59.5432 42.4476C59.3292 42.3506 59.209 42.1492 59.2784 42.001C59.3419 41.8489 59.573 41.8065 59.7865 41.9084C60.0009 42.0054 60.1231 42.2088 60.0488 42.357ZM61.4999 43.662C61.3592 43.7935 61.0842 43.7325 60.8976 43.5247C60.7046 43.3174 60.6684 43.0402 60.8111 42.9067C60.9562 42.7753 61.2229 42.8368 61.4163 43.0441C61.6093 43.2539 61.6469 43.5291 61.4999 43.662ZM62.4954 45.3318C62.3146 45.4584 62.0191 45.3397 61.8364 45.0753C61.6556 44.8109 61.6556 44.4938 61.8403 44.3667C62.0235 44.2397 62.3146 44.3539 62.4998 44.6164C62.68 44.8852 62.68 45.2023 62.4954 45.3318ZM64.179 47.2656C64.0173 47.4454 63.6729 47.3971 63.4208 47.1519C63.1629 46.9121 63.0911 46.5719 63.2533 46.3922C63.4169 46.2119 63.7633 46.2627 64.0173 46.5059C64.2733 46.7452 64.3514 47.0879 64.179 47.2656ZM66.3549 47.9185C66.2836 48.1514 65.9519 48.2572 65.6177 48.1583C65.2841 48.0564 65.0657 47.7836 65.1331 47.5482C65.2025 47.3138 65.5356 47.2035 65.8722 47.3094C66.2054 47.4108 66.4242 47.6816 66.3549 47.9185ZM68.8311 48.1954C68.8394 48.4406 68.5561 48.644 68.2053 48.6484C67.8526 48.6563 67.5674 48.4578 67.5634 48.2166C67.5634 47.9689 67.8404 47.7675 68.1931 47.7616C68.5439 47.7547 68.8311 47.9517 68.8311 48.1954ZM71.2638 48.1014C71.3058 48.3407 71.062 48.5864 70.7137 48.6519C70.3713 48.7149 70.0542 48.5672 70.0107 48.3299C69.9682 48.0847 70.2164 47.839 70.5584 47.7755C70.9072 47.7144 71.2193 47.8582 71.2638 48.1014Z" fill="white"/>
</g>
<g id="Instagram">
<path id="Vector_23" d="M29.5028 137C21.491 137 20.4855 137.034 17.3388 137.175C14.1983 137.317 12.0546 137.805 10.1788 138.523C8.23858 139.263 6.5927 140.254 4.95298 141.867C3.31202 143.478 2.3041 145.096 1.54815 147.003C0.816789 148.848 0.318972 150.956 0.177616 154.042C0.0368751 157.135 0 158.124 0 166C0 173.876 0.0356468 174.861 0.178232 177.955C0.32266 181.042 0.819863 183.149 1.54877 184.993C2.30287 186.901 3.31079 188.519 4.95113 190.13C6.59025 191.744 8.23612 192.737 10.1751 193.478C12.0521 194.195 14.1964 194.683 17.3363 194.825C20.483 194.966 21.4879 195 29.4991 195C37.5115 195 38.5139 194.966 41.6606 194.825C44.8011 194.683 46.9473 194.195 48.8242 193.478C50.7639 192.737 52.4073 191.744 54.0464 190.13C55.6874 188.519 56.6953 186.901 57.4512 184.994C58.1764 183.149 58.6743 181.041 58.8218 177.955C58.9631 174.862 59 173.876 59 166C59 158.124 58.9631 157.136 58.8218 154.042C58.6743 150.955 58.1764 148.848 57.4512 147.004C56.6953 145.096 55.6874 143.478 54.0464 141.867C52.4055 140.253 50.7645 139.263 48.8224 138.523C46.9418 137.805 44.7968 137.317 41.6563 137.175C38.5096 137.034 37.5078 137 29.4935 137H29.5028ZM26.8563 142.226C27.6418 142.225 28.5182 142.226 29.5028 142.226C37.3793 142.226 38.3129 142.254 41.4234 142.393C44.2996 142.522 45.8607 142.995 46.9006 143.391C48.2773 143.917 49.2588 144.545 50.2907 145.56C51.3232 146.575 51.9623 147.542 52.4983 148.895C52.902 149.916 53.3833 151.451 53.5142 154.279C53.6555 157.336 53.6863 158.254 53.6863 165.993C53.6863 173.733 53.6555 174.651 53.5142 177.708C53.3826 180.536 52.902 182.07 52.4983 183.091C51.9636 184.445 51.3232 185.408 50.2907 186.423C49.2581 187.438 48.2779 188.066 46.9006 188.592C45.8619 188.99 44.2996 189.462 41.4234 189.591C38.3135 189.73 37.3793 189.76 29.5028 189.76C21.6256 189.76 20.692 189.73 17.5822 189.591C14.7059 189.46 13.1448 188.988 12.1043 188.591C10.7277 188.065 9.74432 187.437 8.71181 186.422C7.6793 185.407 7.04013 184.443 6.5042 183.089C6.10042 182.068 5.61919 180.533 5.48829 177.706C5.34693 174.649 5.31866 173.73 5.31866 165.986C5.31866 158.242 5.34693 157.328 5.48829 154.271C5.61981 151.444 6.10042 149.909 6.5042 148.887C7.0389 147.534 7.6793 146.567 8.71181 145.552C9.74432 144.537 10.7277 143.909 12.1043 143.382C13.1442 142.983 14.7059 142.512 17.5822 142.382C20.3036 142.261 21.3582 142.225 26.8563 142.219V142.226ZM45.2498 147.041C43.2954 147.041 41.7097 148.598 41.7097 150.52C41.7097 152.441 43.2954 154 45.2498 154C47.2042 154 48.7898 152.441 48.7898 150.52C48.7898 148.599 47.2042 147.04 45.2498 147.04V147.041ZM29.5028 151.107C21.1364 151.107 14.3531 157.775 14.3531 166C14.3531 174.225 21.1364 180.89 29.5028 180.89C37.8692 180.89 44.6499 174.225 44.6499 166C44.6499 157.775 37.8686 151.107 29.5022 151.107H29.5028ZM29.5028 156.333C34.9333 156.333 39.3362 160.661 39.3362 166C39.3362 171.338 34.9333 175.667 29.5028 175.667C24.0716 175.667 19.6693 171.338 19.6693 166C19.6693 160.661 24.0716 156.333 29.5028 156.333V156.333Z" fill="white"/>
</g>
<g id="Facebook">
<path id="path14" d="M345 136.177C345 120.063 331.792 107 315.5 107C299.208 107 286 120.063 286 136.177C286 150.74 296.788 162.811 310.891 165V144.611H303.4V136.177H310.891V129.749C310.891 122.437 315.295 118.397 322.033 118.397C325.261 118.397 328.637 118.967 328.637 118.967V126.148H324.917C321.252 126.148 320.109 128.397 320.109 130.704V136.177H328.291L326.983 144.611H320.109V165C334.212 162.811 345 150.74 345 136.177Z" fill="white"/>
</g>
<g id="Linkedin">
<path id="Path 2520" d="M297.271 49.4199H288.529V35.9612C288.529 32.7519 288.471 28.6204 283.982 28.6204C279.429 28.6204 278.732 32.1172 278.732 35.7276V49.419H269.99V21.7425H278.383V25.5248H278.5C279.34 24.1131 280.554 22.9517 282.012 22.1644C283.47 21.3772 285.118 20.9934 286.78 21.0541C295.641 21.0541 297.274 26.7835 297.274 34.237L297.271 49.4199ZM260.127 17.9593C259.123 17.9595 258.142 17.6672 257.308 17.1193C256.474 16.5714 255.823 15.7927 255.439 14.8814C255.055 13.9702 254.954 12.9674 255.15 12C255.345 11.0325 255.828 10.1438 256.538 9.44617C257.247 8.74857 258.151 8.27342 259.135 8.08081C260.119 7.8882 261.139 7.98679 262.066 8.3641C262.993 8.74141 263.786 9.38049 264.343 10.2005C264.901 11.0206 265.199 11.9848 265.199 12.9712C265.199 13.6261 265.068 14.2746 264.813 14.8798C264.558 15.4849 264.185 16.0348 263.714 16.4979C263.243 16.9611 262.683 17.3286 262.068 17.5793C261.452 17.8301 260.793 17.9592 260.127 17.9593V17.9593ZM264.498 49.4199H255.746V21.7425H264.498V49.4199ZM301.629 0.00395163H251.354C250.213 -0.00870794 249.113 0.42452 248.297 1.20844C247.48 1.99235 247.014 3.06282 247 4.18461V53.8145C247.013 54.9369 247.48 56.0081 248.296 56.7928C249.112 57.5775 250.212 58.0116 251.354 57.9997H301.629C302.773 58.0138 303.876 57.5809 304.695 56.7962C305.515 56.0115 305.984 54.9391 306 53.8145V4.18103C305.984 3.05701 305.514 1.98533 304.695 1.20143C303.875 0.417535 302.772 -0.0144551 301.629 0.000369319" fill="white"/>
</g>
</g>
</svg>
