<svg width="42" height="42" viewBox="0 0 147 148" fill="none" xmlns="http://www.w3.org/2000/svg">
<path d="M81.9678 6.78178L114.76 20.4572C120.145 22.703 124.418 26.996 126.638 32.3919L140.312 65.6296C142.518 70.9918 142.518 77.0082 140.312 82.3704L126.638 115.608C124.418 121.004 120.145 125.297 114.76 127.543L81.9678 141.218C76.5488 143.478 70.4512 143.478 65.0322 141.218L32.2397 127.543C26.8546 125.297 22.5821 121.004 20.3622 115.608L6.68768 82.3704C4.48158 77.0082 4.48158 70.9918 6.68768 65.6296L20.3622 32.3919C22.5821 26.996 26.8546 22.703 32.2397 20.4572L65.0322 6.78178C70.4512 4.52186 76.5488 4.52186 81.9678 6.78178Z" stroke="#65FCDA" stroke-width="6"/>
<path d="M70.336 67.692C60.032 65.668 56.812 62.264 56.812 55.64C56.812 49.568 61.688 44.232 72.36 44.232C82.572 44.232 86.436 49.384 87.908 54.628C88.644 56.56 90.3 57.296 91.956 57.296C92.508 57.296 93.06 57.204 93.52 57.112C95.36 56.744 96.924 55.364 96.924 53.432C96.924 52.972 96.832 52.512 96.648 52.052C94.624 45.428 88.92 36.596 72.36 36.596C55.064 36.596 47.888 45.98 47.888 55.64C47.888 67.692 54.144 72.936 67.944 75.788L75.304 77.352C86.16 79.56 90.3 82.872 90.3 90.416C90.3 98.328 83.768 103.388 73.28 103.388C59.848 103.388 56.812 96.488 55.156 90.324C54.604 88.392 52.856 87.564 51.108 87.564C50.556 87.564 50.096 87.656 49.544 87.748C47.612 88.208 46.048 89.588 46.048 91.612C46.048 91.98 46.14 92.348 46.232 92.808C48.44 100.26 52.764 111.116 73.74 111.116C90.208 111.116 99.316 102.192 99.316 90.324C99.316 76.984 91.496 72.108 77.144 69.072L70.336 67.692Z" fill="#65FCDA"/>
</svg>
